<svg version="1.1" id="Layer_1" xmlns="http://www.w3.org/2000/svg" xmlns:xlink="http://www.w3.org/1999/xlink" x="0px" y="0px"
	 width="100%" viewBox="0 0 1358 1185" xml:space="preserve">
<path fill="none" opacity="1.000000" stroke="none"
	  d="
M547.076599,347.162262
	C538.175781,343.968079 529.419922,340.260712 520.341370,337.695587
	C505.357391,333.462006 491.608246,335.718781 480.529724,347.696533
	C470.434906,358.610687 471.905640,363.896973 485.406616,370.120392
	C495.151276,374.612305 505.077057,379.358612 513.576782,385.773865
	C533.328613,400.681702 545.163757,421.403748 552.990540,444.559265
	C555.488159,451.948425 557.501587,459.520966 560.368958,466.759064
	C562.613464,472.424927 566.218811,472.998322 570.920105,469.151520
	C572.586365,467.788116 573.842712,465.900208 575.568298,464.637360
	C581.554688,460.256287 587.272766,455.254120 593.840759,451.995544
	C600.144531,448.868103 607.312683,447.359619 614.216187,445.588898
	C631.109558,441.255859 627.698303,440.171234 638.239807,453.185486
	C647.296082,464.366058 658.534973,468.229431 672.415833,464.363403
	C674.813904,463.695465 677.207092,462.919189 679.656372,462.557495
	C681.312561,462.312958 683.063110,462.707275 684.771423,462.815826
	C684.495667,464.682007 684.846985,467.062042 683.821350,468.313721
	C681.208252,471.502563 677.956848,474.163849 675.002319,477.078217
	C665.057617,486.887787 652.999084,495.375793 645.761780,506.891235
	C637.566406,519.931152 627.042053,526.568359 613.293396,531.298889
	C594.473022,537.774475 577.391907,547.878235 562.180908,560.809937
	C560.130676,562.552979 559.545715,566.019592 558.282227,568.688049
	C561.237610,568.771301 564.377930,569.522949 567.101929,568.769531
	C570.553711,567.815002 573.639771,565.580261 576.930664,563.995422
	C608.678711,548.706055 642.253357,539.746582 677.058716,534.951782
	C683.462036,534.069702 689.894287,532.884155 696.044861,530.974243
	C698.057190,530.349426 700.372620,527.009521 700.417480,524.866699
	C700.455811,523.034485 697.778137,520.305176 695.699951,519.469604
	C692.725464,518.273682 689.148621,518.682251 685.929688,517.958191
	C682.759583,517.245117 679.715027,515.974121 676.615356,514.947937
	C676.488892,514.144958 676.362366,513.342041 676.235901,512.539062
	C681.116699,508.677704 685.680847,504.293854 690.962341,501.093781
	C696.896179,497.498474 703.556274,495.124634 709.753174,491.933502
	C714.900024,489.283142 720.363037,486.856262 724.755310,483.209442
	C735.099060,474.621033 735.426575,463.987457 726.381287,454.193817
	C721.293579,448.685150 716.460144,442.896576 710.985168,437.800232
	C701.013123,428.517761 690.875977,419.382324 680.385559,410.695343
	C669.406494,401.603699 657.165894,401.969666 644.737610,407.657440
	C637.946228,410.765503 631.267761,414.119537 624.488892,417.255859
	C621.088684,418.829041 617.983276,418.282104 615.518005,415.287842
	C613.047485,412.287079 613.069763,408.909363 615.276733,406.067108
	C619.133972,401.099487 622.880310,395.801392 627.666565,391.842896
	C645.759033,376.879425 674.227356,376.277191 693.353394,389.937653
	C696.891113,392.464417 700.323120,395.163757 705.176147,393.613068
	C707.842834,386.540497 705.449463,380.602112 701.423401,374.916565
	C698.209412,370.377625 695.168579,365.716125 692.050842,361.109070
	C692.295288,360.520844 692.539734,359.932617 692.784241,359.344421
	C696.263733,358.822479 699.756165,357.778168 703.220642,357.863800
	C724.901001,358.399628 743.932251,366.626434 761.657471,378.491943
	C766.075928,381.449707 770.540710,384.342346 775.051025,387.157806
	C779.796936,390.120361 784.272034,389.457703 788.239197,385.652527
	C791.121887,382.887512 793.937561,380.039215 796.614746,377.075897
	C805.393066,367.359467 816.225342,361.148743 829.008179,358.699615
	C832.592896,358.012817 836.541199,358.751007 840.246948,359.324829
	C843.002014,359.751465 843.927429,361.674927 842.789978,364.495453
	C841.300476,368.188721 839.860962,371.918213 838.695923,375.722748
	C836.694702,382.257629 837.864990,388.090118 842.755920,392.732361
	C848.712219,389.197113 854.167542,385.299469 860.149048,382.544373
	C873.173218,376.545502 887.868591,381.251495 895.536987,393.381256
	C898.832703,398.594360 899.071472,404.134796 897.186340,410.178375
	C895.447449,409.247375 894.135681,408.549133 892.827637,407.844116
	C877.059753,399.345490 864.492920,401.914032 854.161743,416.565582
	C841.473938,434.559265 841.320984,458.717834 860.227844,475.814514
	C873.515869,487.830200 889.215576,497.178925 904.550842,508.232117
	C906.142212,495.974609 901.296509,487.666626 894.305908,480.121857
	C889.134521,474.540436 884.100647,468.831635 879.490601,463.717743
	C884.388794,459.281464 888.979126,455.915588 892.535461,451.681274
	C896.120789,447.412628 898.679504,442.281738 902.064636,436.933563
	C905.342285,438.709137 909.004272,439.865784 911.573547,442.216644
	C930.709412,459.725189 937.603455,481.714203 934.138367,507.078522
	C933.150879,514.306458 930.536194,516.033752 923.371521,516.045532
	C914.540649,516.060120 905.708252,515.927917 896.879272,516.052551
	C892.624207,516.112610 888.684509,517.306824 888.188049,522.406860
	C887.720398,527.211182 891.081543,529.268433 895.098450,530.100464
	C902.092407,531.548950 909.214905,532.414978 916.157837,534.056641
	C919.969299,534.957764 923.524048,536.944397 927.043518,538.379883
	C925.288330,544.419861 922.256165,545.370850 917.774658,544.092529
	C910.906982,542.133667 903.948730,540.491394 897.024719,538.731567
	C895.900085,538.445740 894.764038,538.141479 893.615173,538.025940
	C889.993103,537.661926 887.047485,538.464600 885.709229,542.416077
	C884.415527,546.235901 886.338135,548.619812 889.271484,550.235535
	C896.107178,554.000793 903.090576,557.497375 909.996582,561.135986
	C912.809875,562.618286 915.302124,564.367981 913.468811,568.134338
	C911.521423,572.135193 908.544373,571.204346 905.463074,569.697205
	C898.450012,566.267029 891.443726,562.821716 884.391785,559.472839
	C882.916382,558.772217 881.122986,557.822388 879.711365,558.116455
	C877.478333,558.581787 874.635864,559.490540 873.574097,561.172729
	C872.679443,562.590149 873.263062,565.881958 874.413635,567.445007
	C876.546936,570.343140 879.627441,572.529419 882.209900,575.115540
	C884.745056,577.654175 887.151428,580.321472 890.441101,583.808777
	C886.169922,585.526184 883.107727,587.282837 879.820435,587.983765
	C868.589111,590.379028 858.047607,587.307678 847.859436,582.940247
	C835.457214,577.623779 824.312805,570.528076 816.662109,558.980286
	C810.667603,549.932190 811.876587,544.577881 821.048218,539.386047
	C827.204773,535.900940 832.174438,531.329285 833.798035,524.189636
	C834.516418,521.030579 834.329651,517.665588 834.595032,513.790771
	C837.829285,514.739319 840.788513,516.158203 843.818542,516.330200
	C846.485901,516.481750 850.373718,516.168274 851.761658,514.463562
	C861.903503,502.007080 864.334106,488.940491 848.611084,476.442657
	C827.614746,459.753235 788.648926,458.084167 764.330444,472.441193
	C757.492737,476.477997 751.442505,481.369415 747.688782,488.551788
	C741.642273,500.121307 749.541809,518.081177 762.252075,521.228699
	C764.378967,521.755371 767.145813,520.923035 769.255615,519.941650
	C771.288086,518.996277 772.721375,516.838806 774.664551,515.601013
	C776.186768,514.631348 778.945068,513.233154 779.642334,513.820374
	C781.192932,515.126343 782.117310,517.473145 782.666748,519.561462
	C783.009277,520.863342 782.215820,522.470825 781.908081,523.936096
	C780.485535,530.710205 781.743958,533.233582 788.127380,536.005188
	C791.322266,537.392395 794.627808,538.526306 797.814148,539.931458
	C801.868652,541.719543 803.477234,544.638916 800.690857,548.572632
	C796.767761,554.110840 793.238037,560.169983 788.357483,564.744751
	C769.395203,582.519226 746.523315,592.141846 720.776245,594.746765
	C711.145020,595.721191 701.611511,594.765320 691.398987,588.856201
	C697.001709,584.140808 701.836304,579.984497 706.767883,575.946594
	C711.459167,572.105347 715.345947,567.891846 715.164307,559.580017
	C707.476624,561.683533 700.278809,562.963013 693.664062,565.668396
	C687.732239,568.094360 682.514893,572.220642 676.850098,575.358215
	C669.903625,579.205688 664.843018,577.192139 661.974976,569.539734
	C663.483276,568.613342 664.951782,567.497009 666.587830,566.745300
	C672.317078,564.112976 678.143066,561.689941 683.857239,559.026367
	C688.812195,556.716736 693.924744,554.575439 698.427979,551.555115
	C700.091431,550.439453 701.298218,546.714661 700.732178,544.750977
	C700.177979,542.828247 697.247620,540.664001 695.099426,540.341309
	C691.755188,539.838745 688.054138,540.309204 684.739807,541.222290
	C640.700928,553.354858 603.695740,576.052673 576.697144,613.644897
	C574.539307,616.649414 573.313904,619.711060 576.247070,624.294678
	C579.468811,622.410278 582.820374,620.833435 585.742737,618.675293
	C599.520447,608.500549 612.880859,597.731750 626.971924,588.018799
	C639.582336,579.326477 641.533997,580.300232 648.951782,593.670898
	C650.385925,596.255859 650.192688,597.947632 648.449402,600.295166
	C640.716064,610.709534 632.877625,621.073364 625.733337,631.888794
	C620.152466,640.337402 616.739868,649.811646 616.767578,660.774414
	C620.273193,659.269897 623.738403,657.648071 626.033447,655.008667
	C636.722717,642.715332 646.856689,629.935730 657.645386,617.733337
	C665.862000,608.440063 669.424866,608.190674 680.763367,613.746948
	C697.472656,621.935059 714.838562,623.802856 732.634766,618.159058
	C749.246094,612.891052 765.713562,607.162109 782.189148,601.476135
	C795.352478,596.933289 808.669312,596.165710 821.919800,600.356873
	C842.066223,606.729248 861.564087,615.719482 883.823364,613.831177
	C883.364014,614.990173 883.237366,615.457886 883.007324,615.867493
	C880.241150,620.793701 877.512878,625.742310 874.673157,630.626038
	C858.961792,657.645386 850.497192,686.487854 854.157898,717.918335
	C855.751038,731.597473 858.948730,745.094482 861.529175,758.653015
	C867.896484,792.108704 877.749878,824.913574 879.618286,859.208740
	C880.999146,884.555969 881.212158,909.827271 877.314026,934.980591
	C873.180603,961.652466 863.550842,986.574036 852.748474,1011.106567
	C852.062439,1012.664551 851.433350,1014.247559 850.777710,1015.818909
	C851.192627,1016.343933 851.607544,1016.869019 852.022461,1017.394043
	C856.042847,1015.435120 860.339722,1013.887939 864.017578,1011.418823
	C869.254395,1007.903259 873.899292,1003.518982 879.035645,999.838806
	C910.524597,977.276672 945.235535,964.129639 984.371948,963.647278
	C1005.054260,963.392334 1025.080078,967.098022 1044.945801,972.338745
	C1055.181274,975.039001 1057.856689,973.718323 1063.160767,964.423279
	C1067.444824,956.915771 1071.339600,949.145508 1076.126831,941.972107
	C1117.192261,880.438354 1174.846069,852.450500 1248.502930,857.841492
	C1275.780151,859.837891 1302.396729,866.050659 1328.899170,872.603760
	C1343.224854,876.145996 1347.467041,871.803467 1343.450073,857.656433
	C1336.949463,834.762207 1328.703003,812.522461 1317.845825,791.315125
	C1282.039673,721.374512 1229.951416,668.700073 1156.028931,639.389709
	C1127.760986,628.181335 1098.458008,620.875000 1068.194336,617.678101
	C1057.038574,616.499695 1052.230347,619.778687 1048.584839,630.267212
	C1047.931763,632.145935 1047.496094,634.099121 1046.884399,635.993469
	C1041.940308,651.305176 1037.934937,667.004211 1031.837402,681.843079
	C1015.217163,722.289490 991.044739,757.363281 954.659241,782.708862
	C945.035034,789.412964 934.491638,794.953613 923.908325,800.073486
	C915.965637,803.915955 911.389587,801.254028 908.847046,792.867004
	C904.655579,779.040710 900.369263,765.235779 896.559326,751.302612
	C888.724609,722.650574 885.537231,693.817322 894.004822,664.627380
	C899.659729,645.133240 908.636353,627.611328 924.223694,612.338562
	C936.357788,628.979492 948.265747,645.310181 960.257751,661.756226
	C964.129395,657.959290 964.125671,653.974487 962.500610,649.329285
	C956.922180,633.383545 949.815796,618.367432 939.267212,604.951111
	C932.014954,595.727295 934.165100,586.796509 944.104370,580.514465
	C967.208923,591.820679 982.806458,612.538269 1002.682922,628.308960
	C1004.675171,622.626465 1003.105286,618.081787 1000.351746,613.662842
	C989.600830,596.409668 976.859741,580.999146 960.279419,568.921692
	C957.325012,566.769714 954.758789,563.576050 953.068665,560.316223
	C950.534790,555.428772 952.790771,550.549744 956.164917,547.121765
	C957.472290,545.793518 961.489014,547.004883 964.247803,547.288574
	C965.536926,547.421082 966.827332,547.978760 968.019836,548.547668
	C982.548279,555.478455 997.050232,562.464722 1011.579651,569.393372
	C1015.085999,571.065430 1018.667847,572.578979 1022.214966,574.165405
	C1022.739136,573.755066 1023.263306,573.344727 1023.787476,572.934387
	C1022.372620,570.010132 1021.583313,566.462524 1019.416199,564.287964
	C1014.496216,559.351196 1009.342712,554.382446 1003.482727,550.703003
	C991.690125,543.298462 979.439148,536.605957 967.217163,529.911926
	C962.417847,527.283264 959.280579,524.273438 959.757324,518.295776
	C962.395813,485.214355 954.547363,454.229980 940.427307,424.618744
	C936.323730,416.012909 936.085449,407.859894 940.464478,399.313599
	C945.274963,389.925415 946.648621,379.791931 946.296936,369.278656
	C945.499573,345.441895 924.260681,327.986664 901.807495,337.352539
	C892.539185,341.218658 883.837708,338.490143 876.466614,331.707306
	C873.896423,329.342194 871.447021,326.780792 868.609802,324.781006
	C836.211792,301.945648 800.626160,287.282379 760.967529,283.284271
	C755.005676,282.683258 748.970032,282.101715 743.020081,282.434082
	C740.544189,282.572327 737.323853,284.622833 736.094116,286.756104
	C735.196228,288.313751 736.436462,291.798584 737.726562,293.766876
	C739.896912,297.078186 743.212769,299.637695 745.390564,302.945465
	C747.277161,305.810974 748.253296,309.275879 749.631836,312.475861
	C749.040527,312.951904 748.449158,313.427948 747.857849,313.903992
	C744.750671,311.919891 741.384705,310.245605 738.578369,307.901398
	C720.406189,292.721741 699.942200,283.503662 675.966736,282.581360
	C658.908020,281.925110 642.583069,285.687134 626.307556,289.950867
	C600.881775,296.611572 577.185181,307.344147 554.801758,320.984802
	C547.008911,325.733826 544.557129,331.566895 546.244751,339.477875
	C546.759094,341.889160 547.868347,344.173584 548.240662,346.816071
	C548.102173,346.937744 547.963745,347.059448 547.076599,347.162262
M263.177765,453.759766
	C267.996460,439.271912 272.144012,424.518036 277.761078,410.346619
	C293.849548,369.756592 317.806061,333.721771 345.128143,300.059967
	C424.079254,202.789276 526.345581,148.827469 651.150269,138.285217
	C710.526794,133.269699 768.839966,140.394699 825.874390,157.468140
	C880.248474,173.745163 931.808289,196.574234 977.081787,230.998642
	C1075.276245,305.662354 1129.429565,406.005341 1146.109375,527.502808
	C1149.456299,551.882996 1153.747803,576.134216 1157.666992,600.434753
	C1159.422241,611.318909 1166.269409,618.063660 1176.433716,620.852173
	C1189.693115,624.489807 1203.206665,627.201233 1217.143799,630.434875
	C1217.143799,628.152039 1217.150757,626.512451 1217.142944,624.872986
	C1216.459106,480.886414 1215.709839,336.900116 1215.175415,192.912979
	C1215.113403,176.204437 1211.895996,160.367966 1203.696167,145.965240
	C1183.262573,110.074097 1155.730835,87.518036 1110.880493,87.689941
	C889.896790,88.536980 668.907654,87.820847 447.920715,88.020981
	C382.112946,88.080582 316.262085,86.922935 250.533295,91.857635
	C232.966156,93.176521 218.038696,99.877472 205.862717,112.454124
	C184.329285,134.696213 174.026184,162.168274 171.170975,192.320862
	C169.100708,214.184158 168.520599,236.235519 168.255096,258.214844
	C166.948502,366.375244 167.529526,474.520142 172.208511,582.611084
	C172.906860,598.743713 173.592773,614.876831 174.324310,631.939331
	C188.681335,628.716370 202.870636,626.013550 216.768875,622.239014
	C225.817505,619.781677 231.937973,613.313049 233.861710,603.827576
	C238.025253,583.298096 241.971710,562.724548 245.982849,542.164307
	C251.679123,512.966492 257.353729,483.764343 263.177765,453.759766
M258.017151,884.446350
	C284.218231,900.922119 304.514374,923.026428 320.176453,949.568970
	C323.385956,955.008057 326.658264,960.416443 330.097443,965.711792
	C333.621918,971.138672 338.761108,973.372009 345.148987,972.239807
	C351.528442,971.109070 357.886139,969.839600 364.223694,968.491577
	C401.461731,960.571045 437.944916,962.145996 473.426422,976.950745
	C502.472290,989.070312 527.152710,1007.544739 549.038086,1029.776611
	C561.764648,1042.704590 573.446472,1056.655640 585.777100,1069.980835
	C594.238281,1079.124634 598.964294,1079.422485 608.139038,1071.083130
	C635.007874,1046.659790 654.907593,1017.547668 666.067688,982.827393
	C680.348267,938.398865 680.146240,893.417725 670.459839,848.189575
	C663.473083,815.566711 651.296875,784.661743 639.073425,753.761658
	C635.824097,745.547607 630.591797,740.546326 622.094727,737.751160
	C585.633972,725.756836 553.525940,706.394409 526.444458,679.099304
	C518.482544,671.074646 511.340027,662.236084 503.842255,653.752563
	C500.837402,650.352661 497.659180,647.562683 492.643188,649.633423
	C487.654907,651.692810 486.371704,655.654480 486.912170,660.592834
	C487.057129,661.917358 487.115448,663.252380 487.291290,664.572205
	C491.288513,694.571106 493.033234,724.653870 488.801239,754.736389
	C487.401733,764.684387 485.176514,774.756470 481.558746,784.085388
	C477.846985,793.656738 469.174805,797.016602 459.286835,793.910217
	C453.510925,792.095764 447.888214,789.255432 442.765991,785.984802
	C407.130920,763.231140 381.907776,731.436218 365.259491,693.054016
	C356.897034,673.774597 350.837341,653.480286 344.058807,633.535278
	C338.897369,618.348206 333.989166,614.773987 318.115875,617.761230
	C300.330963,621.108215 282.413513,624.267883 265.049530,629.240417
	C205.253418,646.364136 154.731064,678.185486 115.005562,726.477112
	C86.440147,761.202148 66.427094,800.561462 52.000164,842.924927
	C49.703613,849.668640 47.384438,856.479919 46.017559,863.444824
	C44.515011,871.100952 47.883118,874.296021 55.711807,873.878662
	C57.033085,873.808228 58.348286,873.525269 59.654026,873.276123
	C85.122589,868.416870 110.420921,862.207458 136.094284,858.982544
	C179.070709,853.584167 219.929962,861.355957 258.017151,884.446350
M976.652771,312.846802
	C974.725159,307.405029 973.899658,301.181885 970.687317,296.650940
	C952.729431,271.321381 931.084534,249.355225 905.956543,231.177429
	C817.912354,167.485565 720.118103,145.166626 613.387146,165.236023
	C550.201477,177.117279 495.816864,206.498886 451.426361,253.557312
	C432.865326,273.233856 418.097290,295.115509 412.496704,322.045410
	C409.213165,337.834137 406.952301,353.832581 403.938110,369.680908
	C399.745056,391.727844 392.824554,412.116821 374.981720,427.848083
	C368.231934,433.799133 363.514282,443.040863 360.149994,451.671265
	C347.249878,484.763947 348.067413,518.640625 358.421967,552.067749
	C368.940674,586.024780 389.553192,612.222961 422.951416,626.512146
	C441.781738,634.568604 461.243347,637.773865 480.976990,628.744690
	C483.221680,627.717590 485.687866,627.126892 488.097900,626.518066
	C494.641937,624.865112 500.711517,625.429932 506.756866,629.075317
	C518.625427,636.232300 527.361389,646.488647 535.232849,657.432251
	C551.666870,680.280334 573.612976,695.514343 599.695862,704.996460
	C621.530945,712.934265 643.577698,720.298645 665.609131,727.682922
	C673.545105,730.342834 680.452087,734.137390 685.633850,740.909546
	C689.142334,745.494812 693.947510,747.971375 699.833618,748.122803
	C709.645447,748.375183 719.558899,749.642151 729.239990,748.643738
	C739.375061,747.598450 749.559753,745.187622 759.219177,741.895935
	C768.875427,738.605469 776.200562,731.588806 775.782471,720.505554
	C775.307739,707.922058 770.282837,696.982971 759.726990,689.274841
	C758.703674,688.527588 757.285217,688.190918 755.996948,687.957703
	C745.208435,686.004700 734.468628,683.582397 723.595337,682.345947
	C708.539978,680.633911 694.116760,681.785767 682.200745,693.362183
	C676.232483,699.160461 667.994690,699.236694 660.015015,698.743530
	C643.006897,697.692505 627.612488,691.732971 613.116211,683.201416
	C580.888977,664.234680 555.279480,637.955933 532.001587,609.183838
	C527.737671,603.913513 525.954407,597.506775 528.135315,590.894287
	C530.516602,583.674194 533.416687,576.595459 536.539368,569.657104
	C540.630493,560.566956 545.850037,551.761292 546.072510,541.546814
	C546.427185,525.259521 547.467102,508.813354 545.785828,492.687897
	C540.609558,443.041901 516.069580,406.367554 470.062836,385.186432
	C464.530609,382.639404 458.795593,380.532928 453.012787,378.164185
	C455.812164,333.665375 471.957977,294.998810 501.531067,261.974182
	C526.386780,234.217514 557.700195,217.500107 593.262817,207.419464
	C638.025330,194.731003 683.333984,189.712479 729.613464,195.222488
	C770.244629,200.060043 808.849426,212.059113 845.775696,229.456497
	C891.817505,251.148560 927.219543,284.343140 951.135498,329.314331
	C956.314148,339.052216 960.012146,349.700989 963.349792,360.259705
	C966.666626,370.752716 962.989685,381.053741 959.719299,390.981812
	C955.147949,404.859741 956.336060,417.890411 962.412292,431.164032
	C967.077515,441.355255 970.981262,452.053986 973.761169,462.901825
	C976.223083,472.508789 976.489380,482.660919 978.054321,492.520111
	C979.593750,502.218781 981.032959,512.142883 988.921997,519.208984
	C998.943115,528.184753 1011.659424,531.637207 1024.549927,536.531738
	C1027.316772,524.949707 1030.213989,514.043335 1032.504517,503.011047
	C1040.228882,465.807739 1035.327759,430.975677 1013.123047,399.225616
	C1006.469604,389.712097 1000.485229,379.653076 995.018982,369.404144
	C985.703674,351.938660 982.785461,332.270203 976.652771,312.846802
M531.992004,1055.507812
	C521.181580,1045.880737 510.985962,1035.434570 499.449005,1026.775513
	C460.065216,997.215881 416.162506,987.122681 367.973145,999.036011
	C356.411163,1001.894348 345.226501,1006.293823 333.894867,1010.064270
	C324.820038,1013.083740 320.364136,1011.543274 315.760895,1003.368713
	C309.483521,992.221313 303.230133,981.059204 297.092102,969.834717
	C282.472778,943.100342 262.989746,921.104126 235.789825,906.581909
	C220.095078,898.202454 203.448685,892.687256 185.788269,890.455078
	C176.163651,889.238647 171.684189,892.928040 170.650101,902.467346
	C170.399155,904.782288 170.289520,907.120239 170.255478,909.449707
	C169.982697,928.113220 169.190033,946.790710 169.645538,965.437256
	C170.128677,985.214355 170.294510,1005.196350 173.309464,1024.669189
	C178.118774,1055.731812 194.784973,1079.394043 223.628998,1093.459473
	C242.426346,1102.625732 262.562347,1105.778442 283.228424,1105.806519
	C373.726227,1105.929565 464.224182,1105.926758 554.722107,1105.907715
	C558.196655,1105.906982 561.754211,1105.628662 565.126343,1104.846802
	C570.444153,1103.613892 571.785400,1098.628540 568.073975,1094.590576
	C556.235107,1081.710083 544.349304,1068.872803 531.992004,1055.507812
M1048.442139,1006.021545
	C1041.734497,1004.114136 1035.019775,1002.231689 1028.320557,1000.294922
	C994.823547,990.611145 961.928955,992.052490 929.694519,1005.625488
	C885.608276,1024.188965 854.651367,1058.234253 825.429382,1094.268188
	C822.408997,1097.992676 824.233337,1103.198608 828.775879,1104.885986
	C830.751099,1105.619751 833.003845,1105.889893 835.130676,1105.890747
	C914.793579,1105.923340 994.457336,1106.100464 1074.118774,1105.753174
	C1095.914795,1105.658081 1117.861450,1105.292847 1139.461792,1102.721802
	C1179.277832,1097.982178 1212.051270,1065.539795 1217.794678,1025.686157
	C1220.444824,1007.296326 1221.132690,988.547791 1221.568848,969.935120
	C1222.060425,948.955627 1221.390991,927.943665 1220.987915,906.950378
	C1220.726318,893.331726 1214.933960,888.527344 1201.592773,890.724548
	C1177.533081,894.686951 1155.728516,903.919006 1136.380737,918.904419
	C1116.440063,934.348999 1102.660156,954.582275 1091.101562,976.568787
	C1087.006348,984.358704 1083.215820,992.309326 1079.085571,1000.080078
	C1073.815796,1009.994995 1067.184326,1012.526978 1056.730591,1008.895386
	C1054.219971,1008.023193 1051.726196,1007.103149 1048.442139,1006.021545
M843.048462,631.229309
	C843.499512,627.296570 843.950562,623.363831 844.531860,618.295410
	C815.843567,638.412720 785.626038,642.572815 753.368469,636.301636
	C747.680847,635.195923 741.829956,634.751831 736.031494,634.461670
	C732.520569,634.286133 729.537537,635.803894 728.379639,639.614746
	C727.225708,643.412292 729.455383,645.666626 732.152893,647.498474
	C757.823181,664.930420 785.279114,668.607117 814.052246,656.727966
	C826.071472,651.765625 837.125732,644.734802 843.048462,631.229309
z"/>
	<path fill="#FFF" opacity="1.000000" stroke="none"
		  d="
M263.107666,454.161926
	C257.353729,483.764343 251.679123,512.966492 245.982849,542.164307
	C241.971710,562.724548 238.025253,583.298096 233.861710,603.827576
	C231.937973,613.313049 225.817505,619.781677 216.768875,622.239014
	C202.870636,626.013550 188.681335,628.716370 174.324310,631.939331
	C173.592773,614.876831 172.906860,598.743713 172.208511,582.611084
	C167.529526,474.520142 166.948502,366.375244 168.255096,258.214844
	C168.520599,236.235519 169.100708,214.184158 171.170975,192.320862
	C174.026184,162.168274 184.329285,134.696213 205.862717,112.454124
	C218.038696,99.877472 232.966156,93.176521 250.533295,91.857635
	C316.262085,86.922935 382.112946,88.080582 447.920715,88.020981
	C668.907654,87.820847 889.896790,88.536980 1110.880493,87.689941
	C1155.730835,87.518036 1183.262573,110.074097 1203.696167,145.965240
	C1211.895996,160.367966 1215.113403,176.204437 1215.175415,192.912979
	C1215.709839,336.900116 1216.459106,480.886414 1217.142944,624.872986
	C1217.150757,626.512451 1217.143799,628.152039 1217.143799,630.434875
	C1203.206665,627.201233 1189.693115,624.489807 1176.433716,620.852173
	C1166.269409,618.063660 1159.422241,611.318909 1157.666992,600.434753
	C1153.747803,576.134216 1149.456299,551.882996 1146.109375,527.502808
	C1129.429565,406.005341 1075.276245,305.662354 977.081787,230.998642
	C931.808289,196.574234 880.248474,173.745163 825.874390,157.468140
	C768.839966,140.394699 710.526794,133.269699 651.150269,138.285217
	C526.345581,148.827469 424.079254,202.789276 345.128143,300.059967
	C317.806061,333.721771 293.849548,369.756592 277.761078,410.346619
	C272.144012,424.518036 267.996460,439.271912 263.107666,454.161926
z"/>
	<path fill="#FFF" opacity="1.000000" stroke="none"
		  d="
M548.705139,346.516083
	C547.868347,344.173584 546.759094,341.889160 546.244751,339.477875
	C544.557129,331.566895 547.008911,325.733826 554.801758,320.984802
	C577.185181,307.344147 600.881775,296.611572 626.307556,289.950867
	C642.583069,285.687134 658.908020,281.925110 675.966736,282.581360
	C699.942200,283.503662 720.406189,292.721741 738.578369,307.901398
	C741.384705,310.245605 744.750671,311.919891 747.857849,313.903992
	C748.449158,313.427948 749.040527,312.951904 749.631836,312.475861
	C748.253296,309.275879 747.277161,305.810974 745.390564,302.945465
	C743.212769,299.637695 739.896912,297.078186 737.726562,293.766876
	C736.436462,291.798584 735.196228,288.313751 736.094116,286.756104
	C737.323853,284.622833 740.544189,282.572327 743.020081,282.434082
	C748.970032,282.101715 755.005676,282.683258 760.967529,283.284271
	C800.626160,287.282379 836.211792,301.945648 868.609802,324.781006
	C871.447021,326.780792 873.896423,329.342194 876.466614,331.707306
	C883.837708,338.490143 892.539185,341.218658 901.807495,337.352539
	C924.260681,327.986664 945.499573,345.441895 946.296936,369.278656
	C946.648621,379.791931 945.274963,389.925415 940.464478,399.313599
	C936.085449,407.859894 936.323730,416.012909 940.427307,424.618744
	C954.547363,454.229980 962.395813,485.214355 959.757324,518.295776
	C959.280579,524.273438 962.417847,527.283264 967.217163,529.911926
	C979.439148,536.605957 991.690125,543.298462 1003.482727,550.703003
	C1009.342712,554.382446 1014.496216,559.351196 1019.416199,564.287964
	C1021.583313,566.462524 1022.372620,570.010132 1023.787476,572.934387
	C1023.263306,573.344727 1022.739136,573.755066 1022.214966,574.165405
	C1018.667847,572.578979 1015.085999,571.065430 1011.579651,569.393372
	C997.050232,562.464722 982.548279,555.478455 968.019836,548.547668
	C966.827332,547.978760 965.536926,547.421082 964.247803,547.288574
	C961.489014,547.004883 957.472290,545.793518 956.164917,547.121765
	C952.790771,550.549744 950.534790,555.428772 953.068665,560.316223
	C954.758789,563.576050 957.325012,566.769714 960.279419,568.921692
	C976.859741,580.999146 989.600830,596.409668 1000.351746,613.662842
	C1003.105286,618.081787 1004.675171,622.626465 1002.682922,628.308960
	C982.806458,612.538269 967.208923,591.820679 944.104370,580.514465
	C934.165100,586.796509 932.014954,595.727295 939.267212,604.951111
	C949.815796,618.367432 956.922180,633.383545 962.500610,649.329285
	C964.125671,653.974487 964.129395,657.959290 960.257751,661.756226
	C948.265747,645.310181 936.357788,628.979492 924.223694,612.338562
	C908.636353,627.611328 899.659729,645.133240 894.004822,664.627380
	C885.537231,693.817322 888.724609,722.650574 896.559326,751.302612
	C900.369263,765.235779 904.655579,779.040710 908.847046,792.867004
	C911.389587,801.254028 915.965637,803.915955 923.908325,800.073486
	C934.491638,794.953613 945.035034,789.412964 954.659241,782.708862
	C991.044739,757.363281 1015.217163,722.289490 1031.837402,681.843079
	C1037.934937,667.004211 1041.940308,651.305176 1046.884399,635.993469
	C1047.496094,634.099121 1047.931763,632.145935 1048.584839,630.267212
	C1052.230347,619.778687 1057.038574,616.499695 1068.194336,617.678101
	C1098.458008,620.875000 1127.760986,628.181335 1156.028931,639.389709
	C1229.951416,668.700073 1282.039673,721.374512 1317.845825,791.315125
	C1328.703003,812.522461 1336.949463,834.762207 1343.450073,857.656433
	C1347.467041,871.803467 1343.224854,876.145996 1328.899170,872.603760
	C1302.396729,866.050659 1275.780151,859.837891 1248.502930,857.841492
	C1174.846069,852.450500 1117.192261,880.438354 1076.126831,941.972107
	C1071.339600,949.145508 1067.444824,956.915771 1063.160767,964.423279
	C1057.856689,973.718323 1055.181274,975.039001 1044.945801,972.338745
	C1025.080078,967.098022 1005.054260,963.392334 984.371948,963.647278
	C945.235535,964.129639 910.524597,977.276672 879.035645,999.838806
	C873.899292,1003.518982 869.254395,1007.903259 864.017578,1011.418823
	C860.339722,1013.887939 856.042847,1015.435120 852.022461,1017.394043
	C851.607544,1016.869019 851.192627,1016.343933 850.777710,1015.818909
	C851.433350,1014.247559 852.062439,1012.664551 852.748474,1011.106567
	C863.550842,986.574036 873.180603,961.652466 877.314026,934.980591
	C881.212158,909.827271 880.999146,884.555969 879.618286,859.208740
	C877.749878,824.913574 867.896484,792.108704 861.529175,758.653015
	C858.948730,745.094482 855.751038,731.597473 854.157898,717.918335
	C850.497192,686.487854 858.961792,657.645386 874.673157,630.626038
	C877.512878,625.742310 880.241150,620.793701 883.007324,615.867493
	C883.237366,615.457886 883.364014,614.990173 883.823364,613.831177
	C861.564087,615.719482 842.066223,606.729248 821.919800,600.356873
	C808.669312,596.165710 795.352478,596.933289 782.189148,601.476135
	C765.713562,607.162109 749.246094,612.891052 732.634766,618.159058
	C714.838562,623.802856 697.472656,621.935059 680.763367,613.746948
	C669.424866,608.190674 665.862000,608.440063 657.645386,617.733337
	C646.856689,629.935730 636.722717,642.715332 626.033447,655.008667
	C623.738403,657.648071 620.273193,659.269897 616.767578,660.774414
	C616.739868,649.811646 620.152466,640.337402 625.733337,631.888794
	C632.877625,621.073364 640.716064,610.709534 648.449402,600.295166
	C650.192688,597.947632 650.385925,596.255859 648.951782,593.670898
	C641.533997,580.300232 639.582336,579.326477 626.971924,588.018799
	C612.880859,597.731750 599.520447,608.500549 585.742737,618.675293
	C582.820374,620.833435 579.468811,622.410278 576.247070,624.294678
	C573.313904,619.711060 574.539307,616.649414 576.697144,613.644897
	C603.695740,576.052673 640.700928,553.354858 684.739807,541.222290
	C688.054138,540.309204 691.755188,539.838745 695.099426,540.341309
	C697.247620,540.664001 700.177979,542.828247 700.732178,544.750977
	C701.298218,546.714661 700.091431,550.439453 698.427979,551.555115
	C693.924744,554.575439 688.812195,556.716736 683.857239,559.026367
	C678.143066,561.689941 672.317078,564.112976 666.587830,566.745300
	C664.951782,567.497009 663.483276,568.613342 661.974976,569.539734
	C664.843018,577.192139 669.903625,579.205688 676.850098,575.358215
	C682.514893,572.220642 687.732239,568.094360 693.664062,565.668396
	C700.278809,562.963013 707.476624,561.683533 715.164307,559.580017
	C715.345947,567.891846 711.459167,572.105347 706.767883,575.946594
	C701.836304,579.984497 697.001709,584.140808 691.398987,588.856201
	C701.611511,594.765320 711.145020,595.721191 720.776245,594.746765
	C746.523315,592.141846 769.395203,582.519226 788.357483,564.744751
	C793.238037,560.169983 796.767761,554.110840 800.690857,548.572632
	C803.477234,544.638916 801.868652,541.719543 797.814148,539.931458
	C794.627808,538.526306 791.322266,537.392395 788.127380,536.005188
	C781.743958,533.233582 780.485535,530.710205 781.908081,523.936096
	C782.215820,522.470825 783.009277,520.863342 782.666748,519.561462
	C782.117310,517.473145 781.192932,515.126343 779.642334,513.820374
	C778.945068,513.233154 776.186768,514.631348 774.664551,515.601013
	C772.721375,516.838806 771.288086,518.996277 769.255615,519.941650
	C767.145813,520.923035 764.378967,521.755371 762.252075,521.228699
	C749.541809,518.081177 741.642273,500.121307 747.688782,488.551788
	C751.442505,481.369415 757.492737,476.477997 764.330444,472.441193
	C788.648926,458.084167 827.614746,459.753235 848.611084,476.442657
	C864.334106,488.940491 861.903503,502.007080 851.761658,514.463562
	C850.373718,516.168274 846.485901,516.481750 843.818542,516.330200
	C840.788513,516.158203 837.829285,514.739319 834.595032,513.790771
	C834.329651,517.665588 834.516418,521.030579 833.798035,524.189636
	C832.174438,531.329285 827.204773,535.900940 821.048218,539.386047
	C811.876587,544.577881 810.667603,549.932190 816.662109,558.980286
	C824.312805,570.528076 835.457214,577.623779 847.859436,582.940247
	C858.047607,587.307678 868.589111,590.379028 879.820435,587.983765
	C883.107727,587.282837 886.169922,585.526184 890.441101,583.808777
	C887.151428,580.321472 884.745056,577.654175 882.209900,575.115540
	C879.627441,572.529419 876.546936,570.343140 874.413635,567.445007
	C873.263062,565.881958 872.679443,562.590149 873.574097,561.172729
	C874.635864,559.490540 877.478333,558.581787 879.711365,558.116455
	C881.122986,557.822388 882.916382,558.772217 884.391785,559.472839
	C891.443726,562.821716 898.450012,566.267029 905.463074,569.697205
	C908.544373,571.204346 911.521423,572.135193 913.468811,568.134338
	C915.302124,564.367981 912.809875,562.618286 909.996582,561.135986
	C903.090576,557.497375 896.107178,554.000793 889.271484,550.235535
	C886.338135,548.619812 884.415527,546.235901 885.709229,542.416077
	C887.047485,538.464600 889.993103,537.661926 893.615173,538.025940
	C894.764038,538.141479 895.900085,538.445740 897.024719,538.731567
	C903.948730,540.491394 910.906982,542.133667 917.774658,544.092529
	C922.256165,545.370850 925.288330,544.419861 927.043518,538.379883
	C923.524048,536.944397 919.969299,534.957764 916.157837,534.056641
	C909.214905,532.414978 902.092407,531.548950 895.098450,530.100464
	C891.081543,529.268433 887.720398,527.211182 888.188049,522.406860
	C888.684509,517.306824 892.624207,516.112610 896.879272,516.052551
	C905.708252,515.927917 914.540649,516.060120 923.371521,516.045532
	C930.536194,516.033752 933.150879,514.306458 934.138367,507.078522
	C937.603455,481.714203 930.709412,459.725189 911.573547,442.216644
	C909.004272,439.865784 905.342285,438.709137 902.064636,436.933563
	C898.679504,442.281738 896.120789,447.412628 892.535461,451.681274
	C888.979126,455.915588 884.388794,459.281464 879.490601,463.717743
	C884.100647,468.831635 889.134521,474.540436 894.305908,480.121857
	C901.296509,487.666626 906.142212,495.974609 904.550842,508.232117
	C889.215576,497.178925 873.515869,487.830200 860.227844,475.814514
	C841.320984,458.717834 841.473938,434.559265 854.161743,416.565582
	C864.492920,401.914032 877.059753,399.345490 892.827637,407.844116
	C894.135681,408.549133 895.447449,409.247375 897.186340,410.178375
	C899.071472,404.134796 898.832703,398.594360 895.536987,393.381256
	C887.868591,381.251495 873.173218,376.545502 860.149048,382.544373
	C854.167542,385.299469 848.712219,389.197113 842.755920,392.732361
	C837.864990,388.090118 836.694702,382.257629 838.695923,375.722748
	C839.860962,371.918213 841.300476,368.188721 842.789978,364.495453
	C843.927429,361.674927 843.002014,359.751465 840.246948,359.324829
	C836.541199,358.751007 832.592896,358.012817 829.008179,358.699615
	C816.225342,361.148743 805.393066,367.359467 796.614746,377.075897
	C793.937561,380.039215 791.121887,382.887512 788.239197,385.652527
	C784.272034,389.457703 779.796936,390.120361 775.051025,387.157806
	C770.540710,384.342346 766.075928,381.449707 761.657471,378.491943
	C743.932251,366.626434 724.901001,358.399628 703.220642,357.863800
	C699.756165,357.778168 696.263733,358.822479 692.784241,359.344421
	C692.539734,359.932617 692.295288,360.520844 692.050842,361.109070
	C695.168579,365.716125 698.209412,370.377625 701.423401,374.916565
	C705.449463,380.602112 707.842834,386.540497 705.176147,393.613068
	C700.323120,395.163757 696.891113,392.464417 693.353394,389.937653
	C674.227356,376.277191 645.759033,376.879425 627.666565,391.842896
	C622.880310,395.801392 619.133972,401.099487 615.276733,406.067108
	C613.069763,408.909363 613.047485,412.287079 615.518005,415.287842
	C617.983276,418.282104 621.088684,418.829041 624.488892,417.255859
	C631.267761,414.119537 637.946228,410.765503 644.737610,407.657440
	C657.165894,401.969666 669.406494,401.603699 680.385559,410.695343
	C690.875977,419.382324 701.013123,428.517761 710.985168,437.800232
	C716.460144,442.896576 721.293579,448.685150 726.381287,454.193817
	C735.426575,463.987457 735.099060,474.621033 724.755310,483.209442
	C720.363037,486.856262 714.900024,489.283142 709.753174,491.933502
	C703.556274,495.124634 696.896179,497.498474 690.962341,501.093781
	C685.680847,504.293854 681.116699,508.677704 676.235901,512.539062
	C676.362366,513.342041 676.488892,514.144958 676.615356,514.947937
	C679.715027,515.974121 682.759583,517.245117 685.929688,517.958191
	C689.148621,518.682251 692.725464,518.273682 695.699951,519.469604
	C697.778137,520.305176 700.455811,523.034485 700.417480,524.866699
	C700.372620,527.009521 698.057190,530.349426 696.044861,530.974243
	C689.894287,532.884155 683.462036,534.069702 677.058716,534.951782
	C642.253357,539.746582 608.678711,548.706055 576.930664,563.995422
	C573.639771,565.580261 570.553711,567.815002 567.101929,568.769531
	C564.377930,569.522949 561.237610,568.771301 558.282227,568.688049
	C559.545715,566.019592 560.130676,562.552979 562.180908,560.809937
	C577.391907,547.878235 594.473022,537.774475 613.293396,531.298889
	C627.042053,526.568359 637.566406,519.931152 645.761780,506.891235
	C652.999084,495.375793 665.057617,486.887787 675.002319,477.078217
	C677.956848,474.163849 681.208252,471.502563 683.821350,468.313721
	C684.846985,467.062042 684.495667,464.682007 684.771423,462.815826
	C683.063110,462.707275 681.312561,462.312958 679.656372,462.557495
	C677.207092,462.919189 674.813904,463.695465 672.415833,464.363403
	C658.534973,468.229431 647.296082,464.366058 638.239807,453.185486
	C627.698303,440.171234 631.109558,441.255859 614.216187,445.588898
	C607.312683,447.359619 600.144531,448.868103 593.840759,451.995544
	C587.272766,455.254120 581.554688,460.256287 575.568298,464.637360
	C573.842712,465.900208 572.586365,467.788116 570.920105,469.151520
	C566.218811,472.998322 562.613464,472.424927 560.368958,466.759064
	C557.501587,459.520966 555.488159,451.948425 552.990540,444.559265
	C545.163757,421.403748 533.328613,400.681702 513.576782,385.773865
	C505.077057,379.358612 495.151276,374.612305 485.406616,370.120392
	C471.905640,363.896973 470.434906,358.610687 480.529724,347.696533
	C491.608246,335.718781 505.357391,333.462006 520.341370,337.695587
	C529.419922,340.260712 538.175781,343.968079 547.566895,347.399658
	C548.273132,347.263428 548.489136,346.889771 548.705139,346.516083
z"/>
	<path fill="#FFF" opacity="1.000000" stroke="none"
		  d="
M257.708191,884.251465
	C219.929962,861.355957 179.070709,853.584167 136.094284,858.982544
	C110.420921,862.207458 85.122589,868.416870 59.654026,873.276123
	C58.348286,873.525269 57.033085,873.808228 55.711807,873.878662
	C47.883118,874.296021 44.515011,871.100952 46.017559,863.444824
	C47.384438,856.479919 49.703613,849.668640 52.000164,842.924927
	C66.427094,800.561462 86.440147,761.202148 115.005562,726.477112
	C154.731064,678.185486 205.253418,646.364136 265.049530,629.240417
	C282.413513,624.267883 300.330963,621.108215 318.115875,617.761230
	C333.989166,614.773987 338.897369,618.348206 344.058807,633.535278
	C350.837341,653.480286 356.897034,673.774597 365.259491,693.054016
	C381.907776,731.436218 407.130920,763.231140 442.765991,785.984802
	C447.888214,789.255432 453.510925,792.095764 459.286835,793.910217
	C469.174805,797.016602 477.846985,793.656738 481.558746,784.085388
	C485.176514,774.756470 487.401733,764.684387 488.801239,754.736389
	C493.033234,724.653870 491.288513,694.571106 487.291290,664.572205
	C487.115448,663.252380 487.057129,661.917358 486.912170,660.592834
	C486.371704,655.654480 487.654907,651.692810 492.643188,649.633423
	C497.659180,647.562683 500.837402,650.352661 503.842255,653.752563
	C511.340027,662.236084 518.482544,671.074646 526.444458,679.099304
	C553.525940,706.394409 585.633972,725.756836 622.094727,737.751160
	C630.591797,740.546326 635.824097,745.547607 639.073425,753.761658
	C651.296875,784.661743 663.473083,815.566711 670.459839,848.189575
	C680.146240,893.417725 680.348267,938.398865 666.067688,982.827393
	C654.907593,1017.547668 635.007874,1046.659790 608.139038,1071.083130
	C598.964294,1079.422485 594.238281,1079.124634 585.777100,1069.980835
	C573.446472,1056.655640 561.764648,1042.704590 549.038086,1029.776611
	C527.152710,1007.544739 502.472290,989.070312 473.426422,976.950745
	C437.944916,962.145996 401.461731,960.571045 364.223694,968.491577
	C357.886139,969.839600 351.528442,971.109070 345.148987,972.239807
	C338.761108,973.372009 333.621918,971.138672 330.097443,965.711792
	C326.658264,960.416443 323.385956,955.008057 320.176453,949.568970
	C304.514374,923.026428 284.218231,900.922119 257.708191,884.251465
z"/>
	<path fill="#FFF" opacity="1.000000" stroke="none"
		  d="
M976.768799,313.234619
	C982.785461,332.270203 985.703674,351.938660 995.018982,369.404144
	C1000.485229,379.653076 1006.469604,389.712097 1013.123047,399.225616
	C1035.327759,430.975677 1040.228882,465.807739 1032.504517,503.011047
	C1030.213989,514.043335 1027.316772,524.949707 1024.549927,536.531738
	C1011.659424,531.637207 998.943115,528.184753 988.921997,519.208984
	C981.032959,512.142883 979.593750,502.218781 978.054321,492.520111
	C976.489380,482.660919 976.223083,472.508789 973.761169,462.901825
	C970.981262,452.053986 967.077515,441.355255 962.412292,431.164032
	C956.336060,417.890411 955.147949,404.859741 959.719299,390.981812
	C962.989685,381.053741 966.666626,370.752716 963.349792,360.259705
	C960.012146,349.700989 956.314148,339.052216 951.135498,329.314331
	C927.219543,284.343140 891.817505,251.148560 845.775696,229.456497
	C808.849426,212.059113 770.244629,200.060043 729.613464,195.222488
	C683.333984,189.712479 638.025330,194.731003 593.262817,207.419464
	C557.700195,217.500107 526.386780,234.217514 501.531067,261.974182
	C471.957977,294.998810 455.812164,333.665375 453.012787,378.164185
	C458.795593,380.532928 464.530609,382.639404 470.062836,385.186432
	C516.069580,406.367554 540.609558,443.041901 545.785828,492.687897
	C547.467102,508.813354 546.427185,525.259521 546.072510,541.546814
	C545.850037,551.761292 540.630493,560.566956 536.539368,569.657104
	C533.416687,576.595459 530.516602,583.674194 528.135315,590.894287
	C525.954407,597.506775 527.737671,603.913513 532.001587,609.183838
	C555.279480,637.955933 580.888977,664.234680 613.116211,683.201416
	C627.612488,691.732971 643.006897,697.692505 660.015015,698.743530
	C667.994690,699.236694 676.232483,699.160461 682.200745,693.362183
	C694.116760,681.785767 708.539978,680.633911 723.595337,682.345947
	C734.468628,683.582397 745.208435,686.004700 755.996948,687.957703
	C757.285217,688.190918 758.703674,688.527588 759.726990,689.274841
	C770.282837,696.982971 775.307739,707.922058 775.782471,720.505554
	C776.200562,731.588806 768.875427,738.605469 759.219177,741.895935
	C749.559753,745.187622 739.375061,747.598450 729.239990,748.643738
	C719.558899,749.642151 709.645447,748.375183 699.833618,748.122803
	C693.947510,747.971375 689.142334,745.494812 685.633850,740.909546
	C680.452087,734.137390 673.545105,730.342834 665.609131,727.682922
	C643.577698,720.298645 621.530945,712.934265 599.695862,704.996460
	C573.612976,695.514343 551.666870,680.280334 535.232849,657.432251
	C527.361389,646.488647 518.625427,636.232300 506.756866,629.075317
	C500.711517,625.429932 494.641937,624.865112 488.097900,626.518066
	C485.687866,627.126892 483.221680,627.717590 480.976990,628.744690
	C461.243347,637.773865 441.781738,634.568604 422.951416,626.512146
	C389.553192,612.222961 368.940674,586.024780 358.421967,552.067749
	C348.067413,518.640625 347.249878,484.763947 360.149994,451.671265
	C363.514282,443.040863 368.231934,433.799133 374.981720,427.848083
	C392.824554,412.116821 399.745056,391.727844 403.938110,369.680908
	C406.952301,353.832581 409.213165,337.834137 412.496704,322.045410
	C418.097290,295.115509 432.865326,273.233856 451.426361,253.557312
	C495.816864,206.498886 550.201477,177.117279 613.387146,165.236023
	C720.118103,145.166626 817.912354,167.485565 905.956543,231.177429
	C931.084534,249.355225 952.729431,271.321381 970.687317,296.650940
	C973.899658,301.181885 974.725159,307.405029 976.768799,313.234619
M462.726257,596.989197
	C482.245148,586.379700 489.994812,568.101013 493.824310,547.782837
	C496.982849,531.024597 497.019440,513.990540 494.950439,497.031586
	C491.740082,470.717590 482.780731,446.726654 465.499023,426.287292
	C461.629089,421.710236 457.144409,417.652893 452.655365,413.062378
	C449.896057,421.470306 450.795532,428.666962 453.890167,435.522400
	C456.683105,441.709534 459.501617,447.977142 463.149506,453.670685
	C479.655914,479.433380 481.934418,507.942566 479.460754,537.268188
	C477.693176,558.223022 470.752075,577.766907 461.110779,596.909607
	C461.219696,597.187256 461.328613,597.464966 461.437561,597.742615
	C461.633514,597.504517 461.829437,597.266479 462.726257,596.989197
M442.211365,476.296722
	C437.074829,463.940125 430.287933,452.807220 418.195892,446.072632
	C406.788605,439.719391 393.869476,444.421600 388.472229,456.699493
	C390.977539,456.853638 393.535339,456.595917 395.847290,457.231934
	C402.484802,459.057831 409.397125,460.482147 415.508118,463.478363
	C423.712952,467.501160 428.432312,475.282806 432.188324,483.351105
	C436.557556,492.736633 440.502960,502.319458 444.982330,512.621643
	C449.137299,499.869324 446.744904,488.373749 442.211365,476.296722
z"/>
	<path fill="#FFF" opacity="1.000000" stroke="none"
		  d="
M532.236816,1055.763306
	C544.349304,1068.872803 556.235107,1081.710083 568.073975,1094.590576
	C571.785400,1098.628540 570.444153,1103.613892 565.126343,1104.846802
	C561.754211,1105.628662 558.196655,1105.906982 554.722107,1105.907715
	C464.224182,1105.926758 373.726227,1105.929565 283.228424,1105.806519
	C262.562347,1105.778442 242.426346,1102.625732 223.628998,1093.459473
	C194.784973,1079.394043 178.118774,1055.731812 173.309464,1024.669189
	C170.294510,1005.196350 170.128677,985.214355 169.645538,965.437256
	C169.190033,946.790710 169.982697,928.113220 170.255478,909.449707
	C170.289520,907.120239 170.399155,904.782288 170.650101,902.467346
	C171.684189,892.928040 176.163651,889.238647 185.788269,890.455078
	C203.448685,892.687256 220.095078,898.202454 235.789825,906.581909
	C262.989746,921.104126 282.472778,943.100342 297.092102,969.834717
	C303.230133,981.059204 309.483521,992.221313 315.760895,1003.368713
	C320.364136,1011.543274 324.820038,1013.083740 333.894867,1010.064270
	C345.226501,1006.293823 356.411163,1001.894348 367.973145,999.036011
	C416.162506,987.122681 460.065216,997.215881 499.449005,1026.775513
	C510.985962,1035.434570 521.181580,1045.880737 532.236816,1055.763306
z"/>
	<path fill="#FFF" opacity="1.000000" stroke="none"
		  d="
M1048.833374,1006.113342
	C1051.726196,1007.103149 1054.219971,1008.023193 1056.730591,1008.895386
	C1067.184326,1012.526978 1073.815796,1009.994995 1079.085571,1000.080078
	C1083.215820,992.309326 1087.006348,984.358704 1091.101562,976.568787
	C1102.660156,954.582275 1116.440063,934.348999 1136.380737,918.904419
	C1155.728516,903.919006 1177.533081,894.686951 1201.592773,890.724548
	C1214.933960,888.527344 1220.726318,893.331726 1220.987915,906.950378
	C1221.390991,927.943665 1222.060425,948.955627 1221.568848,969.935120
	C1221.132690,988.547791 1220.444824,1007.296326 1217.794678,1025.686157
	C1212.051270,1065.539795 1179.277832,1097.982178 1139.461792,1102.721802
	C1117.861450,1105.292847 1095.914795,1105.658081 1074.118774,1105.753174
	C994.457336,1106.100464 914.793579,1105.923340 835.130676,1105.890747
	C833.003845,1105.889893 830.751099,1105.619751 828.775879,1104.885986
	C824.233337,1103.198608 822.408997,1097.992676 825.429382,1094.268188
	C854.651367,1058.234253 885.608276,1024.188965 929.694519,1005.625488
	C961.928955,992.052490 994.823547,990.611145 1028.320557,1000.294922
	C1035.019775,1002.231689 1041.734497,1004.114136 1048.833374,1006.113342
z"/>
	<path fill="#FFF" opacity="1.000000" stroke="none"
		  d="
M842.972351,631.626221
	C837.125732,644.734802 826.071472,651.765625 814.052246,656.727966
	C785.279114,668.607117 757.823181,664.930420 732.152893,647.498474
	C729.455383,645.666626 727.225708,643.412292 728.379639,639.614746
	C729.537537,635.803894 732.520569,634.286133 736.031494,634.461670
	C741.829956,634.751831 747.680847,635.195923 753.368469,636.301636
	C785.626038,642.572815 815.843567,638.412720 844.531860,618.295410
	C843.950562,623.363831 843.499512,627.296570 842.972351,631.626221
z"/>
</svg>
